<?xml version="1.0" encoding="UTF-8"?>
<svg xmlns="http://www.w3.org/2000/svg" width="2235" height="632" viewBox="0 0 2235 632" fill="none">
  <path d="M770.336 631.667C743.881 631.667 708.813 625.204 673.54 599.302C650.254 581.093 630.289 561.087 614.068 539.706C578.726 495.835 541.949 438.256 502.984 377.33C486.441 351.475 465.934 319.339 444.674 287.936C454.176 319.568 464.635 350.787 472.633 374.671C516.315 505.508 529.644 552.451 494.234 586.512C486.756 593.821 477.066 599.991 465.794 604.619C454.522 609.248 441.922 612.232 428.815 613.376C384.587 617.319 325.32 608.792 192.362 519.994C123.168 473.365 58.8926 423.566 0 370.958L137.606 303.019C193.156 352.9 254.237 399.899 320.33 443.619C315.476 428.537 310.418 413.454 305.838 399.702C286.082 340.564 263.66 273.495 254.226 219.4C247.869 182.726 230.916 85.7677 337.693 62.3877C443.171 39.4662 510.777 121.984 539.693 157.283C578.999 205.327 620.151 269.828 660.073 332.175C675.59 356.472 695.004 386.911 714.76 416.388C713.94 410.291 713.12 404.469 712.368 399.106C706.489 356.884 700.405 313.241 701.499 278.08C702.251 254.654 704.438 183.368 792.143 165.718C854.281 153.203 911.36 174.887 961.672 230.678C989.016 261.026 1015.4 300.314 1040.76 338.318L1050.33 352.575C1064.76 286.102 1082.87 225.773 1161.9 207.573C1196.08 199.78 1260.54 196.617 1313.45 263.364C1332.11 286.928 1349.47 317.505 1368.13 349.916C1377.7 366.786 1392.33 392.641 1407.71 416.113C1406.35 375.313 1399.31 324.427 1394.04 287.753C1386.45 233.245 1378.59 176.858 1380.37 132.207C1381.46 104.701 1384.75 20.6708 1485.3 3.1129C1528.98 -4.49705 1611.97 -4.58871 1677.39 80.4961C1706.58 118.546 1729.34 168.01 1749.44 211.607C1753.2 219.813 1757.51 229.165 1762.02 238.655C1765.64 226.69 1768.44 214.862 1770.43 206.243C1782.18 156.549 1796.81 94.7074 1880.69 77.6079C1986.85 56.0158 2047.62 146.969 2080.3 195.883C2117.76 251.949 2156.52 324.243 2187.69 382.739C2206.42 417.809 2222.62 448.066 2234.79 468.054L2076.61 511.375C2062.93 489.095 2046.25 457.739 2026.84 421.431C2005.65 381.823 1967.03 309.666 1931.68 254.104C1916.17 309.574 1885.06 375.771 1782.87 397.455C1769.67 400.247 1755.78 401.252 1742.01 400.409C1728.23 399.567 1714.84 396.895 1702.61 392.55C1644.37 372.104 1621.2 321.676 1586.4 245.394C1578.2 227.652 1565.9 201.155 1552.64 176.262C1555.16 210.278 1560.5 248.465 1564.46 277.117C1572.53 334.879 1580.87 394.659 1578.13 442.794C1576.7 471.904 1572.12 560.565 1464.93 577.985C1417.08 585.733 1347.01 579.819 1284.6 507.525C1257.26 476.076 1234.83 437.385 1213.16 399.289C1209.06 420.74 1202.92 441.994 1194.78 462.919C1170.58 519.765 1122.66 535.305 1086.77 538.285C992.502 546.17 947.385 478.689 884.974 385.215C883.88 383.565 882.786 381.868 881.556 380.081C881.966 383.014 882.376 385.811 882.718 388.47C888.734 431.654 894.954 476.305 893.792 512.796C893.844 532.094 890.004 551.309 882.376 569.917C865.628 606.821 831.449 621.857 805.746 627.954C794.336 630.514 782.366 631.769 770.336 631.667Z" fill="white"/>
</svg>
